<svg xmlns="http://www.w3.org/2000/svg" xmlns:svg="http://www.w3.org/2000/svg" id="svg24" width="24" height="24" version="1.1" viewBox="0 0 24 24"><metadata id="metadata28"/><title id="title2">icon-32x32-cartebancare</title><desc id="desc4">Created with Sketch.</desc><defs id="defs13"><linearGradient id="linearGradient-1" x1="32" x2="0" y1="0" y2="32" gradientUnits="userSpaceOnUse"><stop id="stop6" offset="0%" stop-color="#083969"/><stop id="stop8" offset="49.17%" stop-color="#007B9D"/><stop id="stop10" offset="100%" stop-color="#00A84A"/></linearGradient></defs><g id="ALL" transform="matrix(0.74981603,0,0,0.74981603,0,0.00588696)" style="fill:none;fill-rule:evenodd;stroke:none;stroke-width:1"><g id="Payment-Method-icons" transform="translate(-632,-758)"><g id="Group-2" transform="translate(416,758)"><g id="icon-32x32-cartebancare" transform="translate(216)"><rect id="Mask" width="32" height="32" x="0" y="0" rx="8" style="fill:url(#linearGradient-1)"/><g id="Page-1" transform="translate(6,12)" style="fill:#fff"><path id="Fill-1" d="m 5,4 h 5 C 9.9474859,3.0278568 9.6954181,1.9027964 9,1 8.0202179,0.31930653 6.4251017,0 5,0 3.5162575,0 1.8756291,0.35022275 1,1 0.17067087,2.0694541 0,3.3495787 0,4 0,5.7045247 0.33390224,7.1058988 1,8 2.1010021,8.7719929 3.5766487,9 5,9 6.3822152,9 7.8797427,8.7425259 9,8 9.6879786,7.1126617 10,6.3398315 10,5 H 5 Z"/><path id="Fill-4" d="m 11,5 v 4 h 7 V 9 C 19.170334,8.9425687 20,8.0819966 20,7 20,5.9682557 19.170334,5.0524958 18,5 v 0 z"/><path id="Fill-7" d="m 20,2 c 0,-1.11053959 -0.818678,-1.99108416 -2,-2 0.07854,0.00891584 -0.0092,-0.00576806 0,0 h -7 v 4 h 7 c 1.248144,-0.088593 2,-0.947601 2,-2"/></g></g></g></g></g></svg>